<?xml version="1.0" standalone="no"?>
<!DOCTYPE svg PUBLIC "-//W3C//DTD SVG 20010904//EN"
 "http://www.w3.org/TR/2001/REC-SVG-20010904/DTD/svg10.dtd">
<svg version="1.0" xmlns="http://www.w3.org/2000/svg"
 width="848.000000pt" height="848.000000pt" viewBox="0 0 848.000000 848.000000"
 preserveAspectRatio="xMidYMid meet">
<metadata>
Created by potrace 1.14, written by Peter Selinger 2001-2017
</metadata>
<g transform="translate(0.000000,848.000000) scale(0.100000,-0.100000)"
fill="#000000" stroke="none">
<path d="M3898 8435 c-2 -2 -46 -6 -98 -9 -52 -2 -95 -5 -95 -6 0 -1 -13 -3
-30 -5 -63 -5 -151 -15 -175 -20 -28 -6 -85 -15 -115 -19 -11 -1 -45 -8 -75
-14 -91 -20 -104 -23 -130 -28 -14 -3 -43 -10 -65 -16 -22 -5 -47 -12 -55 -13
-8 -2 -53 -15 -100 -29 -47 -15 -93 -28 -104 -31 -22 -5 -212 -72 -241 -84
-11 -5 -49 -21 -85 -36 -140 -58 -292 -130 -375 -178 -27 -16 -55 -30 -62 -31
-7 -1 -20 -9 -30 -17 -10 -9 -45 -30 -78 -49 -55 -30 -276 -177 -335 -222 -80
-62 -154 -120 -165 -131 -7 -6 -35 -30 -61 -52 -109 -91 -245 -223 -364 -355
-41 -45 -81 -88 -88 -96 -6 -7 -12 -16 -12 -20 0 -4 -6 -12 -14 -18 -14 -11
-126 -152 -156 -196 -8 -12 -20 -28 -26 -34 -5 -6 -13 -19 -17 -28 -3 -10 -11
-18 -17 -18 -5 0 -10 -4 -10 -9 0 -5 -23 -44 -52 -88 -28 -43 -62 -94 -75
-114 -13 -19 -23 -39 -23 -43 0 -4 -9 -20 -20 -36 -11 -15 -45 -77 -76 -136
-31 -60 -60 -114 -66 -121 -5 -7 -11 -18 -12 -25 -1 -7 -11 -31 -21 -53 -11
-22 -20 -42 -21 -45 0 -3 -8 -23 -18 -45 -10 -22 -26 -62 -37 -90 -11 -27 -27
-65 -36 -84 -8 -18 -16 -39 -17 -45 -1 -6 -21 -67 -43 -136 -39 -117 -91 -292
-98 -329 -2 -9 -4 -17 -5 -18 -3 -3 -3 -3 -15 -58 -4 -22 -9 -49 -11 -60 -1
-11 -9 -56 -18 -99 -9 -44 -19 -102 -22 -130 -3 -28 -8 -62 -10 -76 -26 -149
-26 -830 1 -955 2 -11 7 -43 9 -71 3 -29 7 -62 10 -75 3 -13 8 -42 11 -63 3
-21 8 -48 10 -60 3 -12 7 -34 9 -51 2 -16 14 -73 26 -125 12 -52 23 -102 25
-110 20 -88 120 -399 141 -439 8 -14 14 -31 14 -37 0 -11 7 -29 62 -154 36
-81 167 -341 187 -368 10 -15 20 -31 21 -37 3 -12 19 -39 76 -127 24 -37 44
-70 44 -73 0 -3 9 -15 20 -27 11 -12 20 -28 20 -35 0 -7 4 -13 10 -13 5 0 17
-14 25 -30 9 -17 20 -28 24 -25 5 2 20 42 35 88 14 46 38 110 53 143 32 70 29
63 38 92 4 12 11 22 16 22 5 0 9 6 9 13 0 6 18 40 40 75 22 34 40 67 40 72 0
5 6 13 13 17 8 4 22 22 32 38 52 82 210 249 320 336 83 65 168 125 174 120 2
-1 7 2 10 7 3 5 31 23 61 39 72 40 124 67 130 68 3 1 28 12 55 24 50 23 231
85 276 95 13 3 53 12 89 20 66 14 137 26 200 32 59 6 343 6 375 0 17 -3 50 -8
75 -11 65 -8 100 -14 140 -24 36 -9 34 -13 -12 -15 -15 -1 -30 -5 -34 -9 -4
-4 -15 -7 -25 -7 -22 0 -184 -47 -229 -67 -50 -22 -172 -81 -195 -96 -132 -80
-294 -223 -379 -332 -26 -33 -51 -66 -57 -73 -36 -44 -131 -225 -154 -292 -1
-3 -7 -17 -13 -32 -14 -33 -45 -137 -47 -158 -1 -8 -7 -40 -13 -70 -6 -30 -14
-73 -17 -95 -7 -44 -8 -278 -1 -310 2 -11 7 -40 10 -65 16 -104 56 -259 82
-317 8 -17 14 -35 14 -40 0 -19 89 -182 146 -268 32 -49 105 -137 162 -195 93
-96 127 -126 226 -197 17 -12 37 -27 44 -34 8 -6 55 -35 105 -65 51 -29 97
-58 104 -64 7 -5 16 -10 20 -10 4 0 37 -15 73 -33 138 -70 401 -165 575 -208
44 -11 88 -22 98 -24 38 -10 150 -33 202 -41 17 -3 53 -9 80 -14 28 -6 73 -12
100 -14 28 -2 57 -7 65 -9 8 -3 56 -9 105 -12 50 -4 115 -9 145 -11 65 -5 690
-14 690 -9 0 1 -26 22 -57 46 -65 49 -77 59 -113 88 l-25 20 30 1 c65 3 265
25 325 36 14 3 41 7 60 8 20 2 76 12 125 21 50 9 101 19 115 21 14 2 45 9 70
14 25 6 55 12 68 15 13 2 32 7 42 10 10 3 28 8 39 10 47 11 58 13 101 25 25 7
52 14 60 15 8 1 22 5 30 8 8 3 40 13 70 22 30 10 61 19 68 21 7 2 13 3 15 3 1
0 36 12 77 27 41 14 80 27 87 28 7 1 16 5 19 9 4 4 14 7 22 7 8 0 28 7 45 15
67 30 135 54 141 48 3 -4 6 -1 6 5 0 7 6 12 13 12 8 0 27 6 43 14 16 8 45 21
64 29 61 26 152 68 234 108 l78 38 -38 10 c-36 9 -51 13 -121 26 -16 3 -37 9
-48 12 -28 10 -32 10 -60 12 -14 0 -25 5 -25 11 0 5 35 33 78 62 65 43 244
180 317 241 11 9 65 51 120 94 55 42 102 80 105 83 3 3 32 28 65 55 33 28 78
66 100 85 60 52 373 368 427 430 26 30 54 62 61 70 11 13 46 56 117 143 8 10
22 27 30 37 8 10 22 28 30 40 8 12 20 28 25 34 26 27 56 76 47 76 -5 0 -30 -6
-55 -14 -26 -8 -47 -12 -47 -10 0 3 -8 1 -17 -4 -31 -16 -83 -22 -83 -11 0 6
36 65 80 131 44 66 80 124 80 129 0 5 5 9 11 9 5 0 8 4 4 9 -3 5 -1 12 4 16 6
3 29 40 52 83 24 42 46 79 51 80 4 2 8 8 8 12 0 5 29 69 64 142 78 163 96 204
96 213 0 4 7 23 16 43 9 21 20 46 25 57 12 29 75 219 77 235 1 3 8 22 17 43 8
20 13 37 11 37 -3 0 1 18 9 41 8 23 12 45 9 50 -3 5 0 9 7 9 7 0 10 3 7 6 -3
3 0 29 8 57 7 29 15 63 18 77 3 14 7 36 10 50 12 53 27 137 32 182 l6 47 -31
-15 c-17 -9 -31 -20 -31 -25 0 -5 -5 -9 -11 -9 -6 0 -30 -13 -54 -30 -24 -17
-46 -30 -50 -30 -6 0 -4 18 15 145 19 126 29 216 36 325 7 99 7 451 0 560 -7
115 -24 264 -42 363 -3 17 -7 43 -9 57 -3 25 -6 40 -27 140 -6 30 -11 61 -9
68 1 6 -3 12 -9 12 -6 0 -9 4 -6 8 3 5 -2 35 -11 68 -8 32 -17 66 -18 74 -14
63 -69 230 -76 230 -8 0 -41 -49 -67 -100 -19 -36 -50 -76 -56 -70 -2 3 -7 28
-10 55 -3 28 -9 61 -12 75 -3 14 -7 39 -10 55 -6 34 -43 183 -51 205 -3 8 -7
21 -9 28 -20 97 -152 405 -243 567 -36 64 -105 170 -113 173 -5 2 -8 10 -8 18
0 8 -4 14 -10 14 -5 0 -10 4 -10 10 0 5 -6 18 -14 27 -8 10 -37 46 -65 80 -28
34 -51 64 -51 66 0 3 -19 25 -42 49 -24 25 -52 56 -64 69 -28 32 -176 174
-189 182 -7 4 -10 -22 -10 -74 2 -82 -6 -103 -24 -72 -6 10 -11 14 -11 10 0
-5 -17 8 -37 27 -21 20 -41 36 -45 36 -4 0 -15 8 -25 18 -10 11 -54 45 -98 78
-44 32 -84 63 -90 67 -5 4 -41 30 -80 58 -38 27 -78 56 -88 64 -9 8 -19 15
-21 15 -3 0 -44 26 -93 59 -77 51 -206 130 -298 183 -83 48 -313 161 -410 202
-61 26 -119 51 -130 55 -11 5 -36 15 -55 21 -19 7 -53 19 -75 27 -44 16 -222
67 -270 77 -16 4 -41 9 -55 12 -14 3 -38 7 -55 10 -16 3 -36 7 -42 9 -25 8
-13 -4 35 -36 26 -18 49 -36 50 -41 2 -4 8 -8 13 -8 7 0 105 -67 164 -112 76
-59 197 -148 200 -148 3 0 15 -9 27 -19 13 -11 91 -73 173 -139 83 -66 166
-134 185 -151 81 -70 147 -131 228 -208 60 -57 89 -80 97 -72 6 6 9 47 7 99
-3 81 -1 89 17 95 21 6 81 -19 81 -35 0 -4 6 -10 14 -12 24 -6 222 -181 300
-267 17 -19 50 -53 72 -77 23 -24 40 -44 38 -44 -2 0 8 -12 23 -27 33 -37 163
-199 194 -243 13 -19 26 -37 29 -40 8 -7 102 -141 117 -165 7 -11 18 -30 24
-42 7 -13 16 -23 21 -23 4 0 8 -5 8 -11 0 -6 13 -31 30 -56 16 -24 30 -46 30
-48 0 -2 22 -41 48 -87 46 -79 111 -211 154 -308 11 -25 24 -53 29 -62 5 -10
9 -22 9 -28 0 -6 9 -29 19 -53 18 -40 33 -77 36 -87 2 -11 27 -86 32 -100 8
-21 14 -43 15 -57 1 -7 5 -13 9 -13 3 0 9 -12 12 -27 11 -60 18 -89 26 -113
12 -37 34 -134 47 -210 8 -45 12 -65 14 -65 1 0 3 -16 5 -35 3 -19 7 -53 10
-75 34 -244 38 -613 10 -830 -2 -16 -6 -52 -9 -80 -5 -44 -18 -131 -21 -145
-1 -3 -5 -27 -10 -55 -5 -27 -10 -52 -10 -55 -36 -161 -62 -262 -104 -397 -10
-35 -16 -63 -13 -63 4 0 2 -4 -3 -8 -6 -4 -17 -27 -24 -51 -7 -25 -18 -56 -24
-70 -6 -14 -11 -28 -12 -31 -1 -3 -5 -14 -10 -25 -4 -11 -25 -65 -47 -120 -37
-94 -161 -352 -211 -440 -286 -503 -619 -871 -1044 -1154 -67 -44 -126 -81
-132 -81 -6 0 -11 -4 -11 -10 0 -5 -7 -10 -15 -10 -8 0 -15 -4 -15 -9 0 -5 -8
-11 -17 -14 -10 -4 -45 -22 -78 -41 -33 -19 -74 -41 -91 -49 -17 -8 -49 -26
-72 -41 -23 -14 -42 -24 -42 -21 0 2 -39 -15 -87 -39 -49 -24 -115 -54 -148
-67 -33 -13 -63 -28 -67 -34 -4 -5 -8 -7 -8 -2 0 4 -12 1 -27 -7 -35 -18 -349
-124 -385 -130 -15 -3 -31 -7 -36 -10 -5 -3 -19 -7 -33 -10 -13 -3 -34 -7 -46
-10 -58 -15 -72 -18 -138 -31 -38 -7 -83 -16 -100 -20 -16 -3 -48 -8 -70 -11
-22 -3 -83 -11 -135 -18 -153 -21 -524 -14 -680 13 -69 13 -134 24 -145 26
-11 2 -47 11 -79 19 -33 9 -67 18 -75 20 -9 2 -23 6 -31 9 -8 3 -33 11 -55 17
-22 7 -59 20 -82 31 -24 10 -47 19 -53 19 -5 0 -10 5 -10 10 0 6 -7 10 -15 10
-8 0 -24 9 -35 20 -11 11 -24 20 -28 20 -9 0 -70 58 -120 114 -42 47 -99 165
-111 232 -9 49 -8 143 3 191 21 96 143 253 232 298 21 11 41 23 44 26 6 6 88
40 110 44 8 2 27 8 41 13 44 17 156 37 269 48 94 9 169 11 518 15 171 1 312 5
312 9 0 3 11 5 25 5 20 -1 128 19 255 48 8 2 42 12 75 22 33 11 62 20 65 20 3
1 14 5 25 9 265 99 444 211 610 382 50 50 95 98 100 106 55 74 102 135 113
147 33 34 159 319 178 404 2 9 6 25 9 35 33 123 34 127 58 262 19 105 26 155
33 245 3 39 7 79 9 90 6 29 -6 43 -43 50 -18 3 -41 9 -50 14 -9 5 -42 16 -72
26 -60 19 -294 130 -350 166 -19 13 -38 23 -42 24 -3 0 -18 10 -32 22 -15 13
-29 23 -32 23 -8 0 -164 119 -230 176 -112 97 -310 299 -375 384 -15 19 -36
45 -48 57 -11 12 -57 72 -101 134 -70 97 -95 140 -140 244 -15 33 -29 97 -34
155 l-5 55 29 -35 c110 -130 205 -222 294 -285 16 -11 34 -24 40 -30 15 -13
50 -33 106 -61 41 -20 81 -30 163 -38 38 -4 211 28 232 43 51 37 240 48 330
18 28 -9 52 -16 55 -15 10 4 126 -76 155 -107 46 -50 65 -75 58 -75 -3 0 0 -8
8 -17 19 -24 51 -83 45 -83 -3 0 2 -16 10 -35 8 -20 12 -40 9 -45 -4 -6 -1
-10 4 -10 6 0 10 -5 8 -11 -12 -55 125 54 251 199 9 11 42 47 72 82 30 34 59
69 64 77 4 9 16 23 25 32 35 38 61 72 61 81 0 6 3 10 8 10 4 0 15 11 24 24
l17 24 -59 22 c-55 21 -71 36 -53 54 4 3 8 12 9 19 1 7 7 32 14 57 7 25 14 54
16 65 1 11 3 20 4 20 2 0 6 21 14 70 4 22 9 54 11 70 11 65 15 145 7 146 -13
1 -33 7 -222 59 -102 29 -200 56 -217 61 -18 5 -48 13 -65 19 -18 5 -58 16
-88 24 -149 39 -237 75 -260 107 -3 4 -31 37 -64 73 -63 71 -104 105 -136 111
-11 2 -25 7 -31 10 -5 4 -58 19 -117 35 -59 15 -145 40 -192 54 -47 14 -92 28
-100 30 -94 26 -424 144 -506 182 -29 13 -55 24 -58 24 -4 0 -75 32 -226 102
-85 40 -207 119 -251 163 -17 17 -21 18 -29 5 -5 -8 -10 -24 -11 -35 0 -11 -2
-33 -4 -50 -6 -51 15 -145 47 -214 17 -36 34 -68 37 -71 3 -3 19 -23 36 -45
38 -51 149 -160 184 -181 60 -35 58 -48 -16 -125 -95 -99 -143 -159 -143 -176
0 -5 -10 -20 -22 -33 -13 -14 -22 -27 -21 -30 5 -10 -8 -40 -18 -40 -5 0 -8
-3 -7 -7 1 -5 -9 -39 -22 -78 -13 -38 -23 -71 -22 -72 0 -2 -4 -17 -9 -35 -9
-32 -15 -80 -23 -178 -2 -25 0 -50 6 -57 6 -7 5 -14 -2 -18 -6 -3 -8 -10 -5
-15 3 -5 8 -35 10 -67 3 -32 8 -71 10 -88 20 -118 38 -199 51 -232 9 -21 16
-38 14 -38 -4 0 24 -68 70 -170 44 -97 79 -185 73 -185 -3 0 -1 -6 5 -12 10
-13 26 -97 25 -133 -1 -53 -15 -130 -29 -163 -8 -20 -14 -37 -13 -37 1 0 -8
-19 -20 -43 -51 -100 -177 -190 -305 -217 -62 -13 -217 -13 -271 0 -16 4 -34
8 -40 9 -28 6 -91 30 -102 39 -7 5 -13 6 -13 1 0 -5 -4 -4 -8 1 -4 6 -18 16
-32 23 -59 30 -77 43 -121 84 -59 56 -131 145 -186 231 -47 73 -156 287 -146
287 3 0 0 7 -7 15 -7 8 -9 15 -5 15 4 0 3 6 -3 13 -13 15 -82 223 -82 246 0 9
-5 22 -12 29 -7 7 -9 12 -6 12 3 0 2 17 -3 38 -16 64 -19 76 -24 102 -3 14 -8
39 -11 55 -7 35 -9 49 -19 130 -3 33 -9 71 -11 85 -28 166 -22 665 11 855 3
17 8 49 10 71 3 23 14 84 25 135 11 52 23 108 26 124 5 29 31 134 41 165 2 8
4 15 3 15 0 0 9 27 20 60 12 33 23 67 25 75 4 19 40 110 71 180 126 283 307
533 551 760 87 82 304 250 322 250 5 0 11 3 13 8 4 10 86 62 98 62 5 0 10 4
10 8 0 5 19 17 41 28 23 10 47 23 53 29 10 10 290 145 300 145 3 0 17 5 33 12
15 6 30 12 33 13 3 0 23 7 45 15 l40 14 -50 7 c-54 6 -460 10 -467 4z"/>
</g>
</svg>
