<svg width="57" height="75" fill="none" xmlns="http://www.w3.org/2000/svg"><path d="M26.38 45.03c-14.4 2.51-27.39-8.52-18.9-20.41 4.3-6.04 10.37-10.55 17.94-10.55 22.24 0 21.34 10.44 22.24 20.03l3.21 40.42h-29.3l4.8-29.49Z" fill="#FCC17C"/><path d="M20.48 3.35a1.45 1.45 0 0 1 1.82-2l5.94 2.28V8l-5.94 2.29a1.45 1.45 0 0 1-1.82-2L21.7 5.8l-1.23-2.46Z" fill="#fff"/><path d="M33.1 3.35a1.45 1.45 0 0 0-1.82-2l-5.94 2.28V8l5.94 2.29a1.45 1.45 0 0 0 1.83-2L31.88 5.8l1.23-2.46Z" fill="#fff"/><circle cx="21.29" cy="29.02" r="5.92" fill="#2C134D"/><circle cx="8.88" cy="29.94" r=".87" fill="#2C134D"/><path d="M36.26 38.3a6.64 6.64 0 0 0-1.27-3.37 9.66 9.66 0 0 0-3.06-2.69 14.58 14.58 0 0 0-4.4-1.62 18.46 18.46 0 0 0-10.01.78 14.58 14.58 0 0 0-4.1 2.27c-1.15.93-2.04 2-2.6 3.13a6.64 6.64 0 0 0-.74 3.51l26.18-2.02Z" fill="#FCC17C"/><path d="M30.42 22.02c-3.91-.52-6.52-.15-10.88 1.34l7.54 4.42c0-1.3.55-2.5 2.82-3.75a9.18 9.18 0 0 0-4.44.17c.4-.27.79-1.25 4.96-2.18Z" fill="#2C134D"/><path d="M23.37 27.94a2.86 2.86 0 1 0-5.6 1.1l2.8-.54 2.8-.56Z" fill="#fff"/><path d="M54 58.68c1.6.86 1.87 2.62.61 3.91l-4.93 5.1-1.9-12.39L54 58.68Z" fill="#FCC17C"/><path d="M52.78 48.48c1.6.86 1.86 2.61.6 3.91l-4.92 5.1-1.91-12.4 6.23 3.39Z" fill="#FCC17C"/><path d="M50.86 39.36c1.6.86 1.86 2.61.6 3.91l-4.92 5.1-1.91-12.4 6.23 3.39Z" fill="#FCC17C"/><path d="M49.9 31.2c1.6.85 1.86 2.6.6 3.9l-4.93 5.1-1.9-12.39 6.23 3.38Z" fill="#FCC17C"/><path d="M47.61 23.01c1.74.5 2.39 2.15 1.45 3.69l-3.7 6.05-4.57-11.67 6.82 1.93Z" fill="#FCC17C"/><path d="M42.98 17.65c1.8-.23 3.04 1.04 2.77 2.83l-1.04 7.01-8.77-8.96 7.04-.88Z" fill="#FCC17C"/><path d="M37.78 15.3c1.58-.89 3.2-.17 3.62 1.59l1.65 6.9-11.47-5.06 6.2-3.44Z" fill="#FCC17C"/></svg>