<svg width="57" height="78" fill="none" xmlns="http://www.w3.org/2000/svg"><path d="M26.38 47.95c-14.4 2.5-27.39-8.53-18.9-20.42 4.3-6.04 10.37-10.55 17.94-10.55 22.24 0 21.34 10.44 22.24 20.03l3.21 40.42h-29.3l4.8-29.49Z" fill="#FCC17C"/><path d="M36.42 2.18c-8.2 1.98-13.41 11.79-15 16.44 2.97 1.73 8.74 4.9 8.12 3.76-.77-1.42 3.31-10.64 6.88-20.2Z" fill="#FCC17C"/><path d="M16.94 9.63c4.85 1.17 7.95 6.98 8.89 9.74-1.76 1.03-5.18 2.9-4.81 2.23.45-.85-1.97-6.3-4.08-11.97Z" fill="#FCC17C"/><circle cx="19.64" cy="30.1" r="6.57" fill="#fff" stroke="#2C134D" stroke-width="3.22"/><circle cx="17.59" cy="30.58" r="2.12" fill="#2C134D"/><path d="M15.01 26.46c-2.15-1.14-6.28-3.19-11.03-.3" stroke="#2C134D" stroke-width="3.22"/><path d="M54 61.6c1.6.85 1.87 2.6.61 3.9l-4.93 5.1-1.9-12.39L54 61.6Z" fill="#FCC17C"/><path d="M52.78 51.38c1.6.87 1.86 2.62.6 3.92l-4.92 5.1L46.55 48l6.23 3.38Z" fill="#FCC17C"/><path d="M50.86 42.26c1.6.86 1.86 2.62.6 3.92l-4.92 5.1-1.91-12.4 6.23 3.38Z" fill="#FCC17C"/><path d="M49.9 34.1c1.6.86 1.86 2.61.6 3.91l-4.93 5.1-1.9-12.4 6.23 3.39Z" fill="#FCC17C"/><path d="M47.61 25.92c1.74.5 2.39 2.14 1.45 3.69l-3.7 6.05L40.8 24l6.82 1.93Z" fill="#FCC17C"/><path d="M42.98 20.55c1.8-.22 3.04 1.04 2.77 2.83l-1.04 7.02-8.77-8.96 7.04-.89Z" fill="#FCC17C"/><path d="M37.78 18.2c1.58-.88 3.2-.16 3.63 1.6l1.65 6.9-11.48-5.06 6.2-3.44Z" fill="#FCC17C"/></svg>