<svg width="57" height="79" fill="none" xmlns="http://www.w3.org/2000/svg"><path d="M26.38 48.57c-14.4 2.51-27.39-8.52-18.9-20.41 4.3-6.04 10.37-10.55 17.94-10.55 22.24 0 21.34 10.44 22.24 20.03l3.21 40.42h-29.3l4.8-29.49Z" fill="#FCC17C"/><path d="M33.83.54a.32.32 0 0 1 .57 0l.83 1.56c.03.05.08.1.13.13l1.56.83c.23.12.23.44 0 .57l-1.56.82a.32.32 0 0 0-.13.14l-.83 1.56a.32.32 0 0 1-.57 0l-.82-1.56a.32.32 0 0 0-.14-.14l-1.56-.82a.32.32 0 0 1 0-.57l1.56-.83c.06-.03.1-.08.14-.13l.82-1.56ZM19.7 6.32a.32.32 0 0 1 .56 0l1.23 2.32c.03.05.08.1.14.13L23.94 10c.23.12.23.45 0 .57l-2.31 1.23a.32.32 0 0 0-.14.13l-1.23 2.32a.32.32 0 0 1-.57 0l-1.23-2.32a.32.32 0 0 0-.13-.13l-2.32-1.23a.32.32 0 0 1 0-.57l2.32-1.23c.06-.03.1-.08.13-.13l1.23-2.32Z" fill="#fff"/><path d="M9.42 17.42c3 2.13 7.61 4.54 9.81 4.9l-9.95 7.07c-.7-.52-3.56-4.24-2.7-10.95.16-1.27 1.8-1.76 2.84-1.02Z" fill="#FCC17C"/><path d="M27.57 31.37a6.28 6.28 0 1 0-10.72 4.44 15.15 15.15 0 0 1 10.72-4.44Z" fill="#2C134D"/><circle cx="18.59" cy="31.07" r="1.77" fill="#fff"/><circle cx="21.08" cy="28.63" r=".73" fill="#fff"/><path d="M54 62.22c1.6.86 1.87 2.61.61 3.91l-4.93 5.1-1.9-12.39L54 62.22Z" fill="#FCC17C"/><path d="M52.78 52.01c1.6.86 1.86 2.62.6 3.92l-4.92 5.1-1.91-12.4 6.23 3.38Z" fill="#FCC17C"/><circle cx="31.98" cy="64.72" r="5.21" fill="#2C134D"/><circle cx="43.37" cy="51.48" r="3.05" fill="#2C134D"/><circle cx="24.36" cy="51.48" r="5.25" fill="#2C134D"/><circle cx="37.91" cy="39.29" r="4.17" fill="#2C134D"/><circle cx="49.67" cy="64.67" r="4.67" fill="#2C134D"/><circle cx="51.99" cy="66.26" r="4.67" fill="#2C134D"/><path d="M50.86 42.9c1.6.85 1.86 2.6.6 3.9l-4.92 5.1-1.91-12.39 6.23 3.38Z" fill="#FCC17C"/><path d="M49.9 34.73c1.6.86 1.86 2.61.6 3.91l-4.93 5.1-1.9-12.4 6.23 3.39Z" fill="#FCC17C"/><path d="M47.61 26.55c1.74.5 2.39 2.14 1.45 3.69l-3.7 6.05-4.57-11.67 6.82 1.93Z" fill="#FCC17C"/><path d="M42.98 21.18c1.8-.22 3.04 1.04 2.77 2.83l-1.04 7.02-8.77-8.97 7.04-.88Z" fill="#FCC17C"/><path d="M37.78 18.83c1.58-.88 3.2-.16 3.62 1.6l1.65 6.9-11.47-5.06 6.2-3.44Z" fill="#FCC17C"/><path d="M32.25 16.62c1.28-1.28 3.04-1.04 3.93.54l3.48 6.17-12.42-1.7 5.01-5Z" fill="#FCC17C"/><path d="M26.7 15.02c1.27-1.28 3.03-1.04 3.92.54l3.48 6.17-12.42-1.7 5.01-5.01Z" fill="#FCC17C"/></svg>