<svg width="61" height="71" fill="none" xmlns="http://www.w3.org/2000/svg"><path d="M60.1 19.87v-2.52c0-.98-.78-1.78-1.76-1.78H58c-.98 0-1.77.8-1.77 1.78v4.06" stroke="#fff" stroke-width="1.77"/><circle cx="55.49" cy="21.33" r="1.63" fill="#fff"/><circle cx="59.36" cy="19.87" r="1.63" fill="#fff"/><path d="M15.26 50.87v-3.02c0-1.17-.95-2.12-2.12-2.12h-.39c-1.17 0-2.12.95-2.12 2.12v4.85" stroke="#fff" stroke-width="2.12"/><circle cx="9.74" cy="52.61" r="1.95" fill="#fff"/><circle cx="14.37" cy="50.87" r="1.95" fill="#fff"/><path d="m39.66 17.26 1-4.45A8.04 8.04 0 0 0 32.83 3h-3.9a8.04 8.04 0 0 0-7.85 6.27l-.73 3.22" stroke="#fff" stroke-width="5.63"/><path d="M49.9 26.98c1.6.86 1.86 2.62.6 3.92L45.57 36l-1.9-12.4 6.23 3.38Z" fill="#FCC17C"/><path d="M47.61 18.8c1.74.5 2.39 2.14 1.45 3.69l-3.7 6.05-4.57-11.67 6.82 1.93Z" fill="#fff"/><path d="M26.38 40.82c-14.4 2.51-27.39-8.52-18.9-20.41 4.3-6.04 10.37-10.55 17.94-10.55 22.24 0 21.34 10.44 22.24 20.03l3.21 40.42h-29.3l4.8-29.49Z" fill="#FCC17C"/><circle cx="39.32" cy="19.85" r="10.52" fill="#fff" stroke="#2C134D" stroke-width="2.41"/><path d="m39.66 17.26 1-4.45A8.04 8.04 0 0 0 32.83 3h-.14" stroke="#fff" stroke-width="5.63"/><circle cx="19.68" cy="22.4" r="5.92" fill="#2C134D"/><path d="M21.87 21.68a2.46 2.46 0 0 0-4.4.78" stroke="#fff" stroke-width="2.41" stroke-linecap="round"/><path d="M54 54.47c1.6.86 1.87 2.61.61 3.91l-4.93 5.1-1.9-12.39L54 54.47Z" fill="#FCC17C"/><path d="M52.78 44.27c1.6.86 1.86 2.61.6 3.91l-4.92 5.1-1.91-12.4 6.23 3.39Z" fill="#FCC17C"/><path d="M50.86 35.15c1.6.86 1.86 2.61.6 3.91l-4.92 5.1-1.91-12.4 6.23 3.39Z" fill="#FCC17C"/></svg>