<svg width="57" height="73" fill="none" xmlns="http://www.w3.org/2000/svg"><path d="M26.38 43c-14.4 2.51-27.39-8.52-18.9-20.4 4.3-6.05 10.37-10.56 17.94-10.56 22.24 0 21.34 10.45 22.24 20.03l3.21 40.42h-29.3L26.38 43Z" fill="#FCC17C"/><path d="M11.58 19.58H27.2v5.8a7.81 7.81 0 0 1-15.62 0v-5.8Z" fill="#2C134D"/><path fill="#2C134D" d="M5.5 19.58h15.46v5.21H5.5z"/><path d="M22.31 22.02a.32.32 0 0 1 .57 0l.61 1.14c.03.06.08.1.13.14l1.15.6c.22.13.22.45 0 .57l-1.15.6a.32.32 0 0 0-.13.14l-.6 1.15a.32.32 0 0 1-.58 0l-.6-1.15a.32.32 0 0 0-.14-.13l-1.14-.6a.32.32 0 0 1 0-.58l1.14-.6c.06-.03.1-.08.14-.14l.6-1.14ZM12.54 13.86c0-6.56 5.32-11.88 11.88-11.88h8.9c6.55 0 11.87 5.32 11.87 11.88v3.29H12.54v-3.3Z" fill="#fff"/><path d="M15.16 15.78h8.74v-3.44a4.37 4.37 0 0 0-8.74 0v3.44Z" fill="#2C134D"/><path d="M24.59 3.97c0-2.2 1.78-3.97 3.97-3.97h.6c2.2 0 3.97 1.78 3.97 3.97H24.6Z" fill="#fff"/><path d="M28.16 14.2h25.05" stroke="#fff" stroke-width="5.94" stroke-linecap="round"/><path d="M54 56.65c1.6.87 1.87 2.62.61 3.92l-4.93 5.1-1.9-12.4L54 56.65Z" fill="#FCC17C"/><path d="M52.78 46.45c1.6.87 1.86 2.62.6 3.92l-4.92 5.1-1.91-12.4 6.23 3.38Z" fill="#FCC17C"/><path d="M50.86 37.33c1.6.86 1.86 2.61.6 3.91l-4.92 5.1-1.91-12.39 6.23 3.38Z" fill="#FCC17C"/><path d="M49.9 29.17c1.6.86 1.86 2.6.6 3.9l-4.93 5.1-1.9-12.38 6.23 3.38Z" fill="#FCC17C"/><path d="M47.61 20.99c1.74.49 2.39 2.14 1.45 3.68l-3.7 6.06-4.57-11.68L47.6 21Z" fill="#FCC17C"/><path d="M40.43 14.17c1.52-.97 3.18-.35 3.7 1.38l2.06 6.79-11.75-4.37 5.99-3.8Z" fill="#FCC17C"/></svg>